<?xml version="1.0" encoding="utf-8"?>
<!-- Generator: Adobe Illustrator 18.1.1, SVG Export Plug-In . SVG Version: 6.00 Build 0)  -->
<svg version="1.1" id="Layer_1" xmlns="http://www.w3.org/2000/svg" xmlns:xlink="http://www.w3.org/1999/xlink" x="0px" y="0px"
	 viewBox="0 0 346.8 293.3" enable-background="new 0 0 346.8 293.3" xml:space="preserve">
<path fill="#242424" d="M14.8,37.5C30.8,11.6,63.5,0.2,96.5,0h1.2c32.8,0,69.1,7.4,99.5,12.8c61.7,10.8,135.4,41.1,148,94.2
	c0.9,3.8,1.4,7.6,1.4,11.4v2.3c-1,48-64,92-100.7,115.4c-40.2,25.6-117.4,68.9-162.6,54.3c-45.2-14.6-56.7-32.1-64.4-97.2
	C11.4,128.1-17.1,89.2,14.8,37.5L14.8,37.5z"/>
<path fill="#FED426" d="M29.2,30.1c32.8-37.5,122.4-16.7,162-9.4c39.6,7.3,150.3,37.2,148.7,101.9c-6.7,49.4-81.8,95.4-122.2,118.3
	c-40.4,22.9-112.9,43.7-139,33.6c-26.1-10.1-33.9-30-43.2-65.7C26.3,173.3-3.6,67.6,29.2,30.1L29.2,30.1z"/>
<linearGradient id="SVGID_1_" gradientUnits="userSpaceOnUse" x1="242.9252" y1="-97.2738" x2="137.0853" y2="208.167">
	<stop  offset="0" style="stop-color:#FFFFFF"/>
	<stop  offset="1" style="stop-color:#FED426"/>
</linearGradient>
<path fill="url(#SVGID_1_)" d="M29.2,30.1c32.8-37.5,122.4-16.7,162-9.4c39.6,7.3,150.3,37.2,148.7,101.9
	C284.3,208.4-32.8,145,23.5,38.5C25,35.7,27,32.9,29.2,30.1L29.2,30.1z"/>
<linearGradient id="SVGID_2_" gradientUnits="userSpaceOnUse" x1="33.6684" y1="309.4225" x2="120.2346" y2="192.0932">
	<stop  offset="0" style="stop-color:#FFFFFF"/>
	<stop  offset="1" style="stop-color:#FED426"/>
</linearGradient>
<path fill="url(#SVGID_2_)" d="M189.4,254.6c-46.6,19.1-93.1,26.8-110.6,20h0l0,0c-4-1.6-7.6-3.3-10.8-5.4c-4.3-2.8-8.1-6-11.3-9.8
	l-0.5-0.6l-0.1-0.1c-0.2-0.3-0.4-0.5-0.7-0.8l0,0l0,0c-1.5-1.8-2.8-3.8-4.1-5.9c-2.1-3.5-4.2-7.7-6.2-12.5
	c-3.5-8.6-6.4-18.8-9.5-30.7C31,191.6,21.7,157.8,17,123.3c82.2,59.2,134.1,88.9,237.7,95.4c-13.5,8.8-26.4,16.4-37,22.3
	C209.4,245.7,199.7,250.3,189.4,254.6L189.4,254.6z"/>
<path fill="#2727FF" d="M118.4,230.7c1.2,5,1.2,8.8,0,11.5c-1.3,3.3-4.6,6.2-9.8,8.8c-7.2,3.6-13.2-0.4-18-11.9
	c-1.3-3.1-2.7-7.4-4.2-13c-1.7-6.3-3.7-12.2-5.9-17.5c-2.4-5.7-5.2-11.4-8.6-17.4c-1.9-3.4-3.5-6.5-4.6-9.3
	c-4.9-11.6-3.3-20.3,4.7-26.2c1-0.7,2-1.4,3-1.9c7.8-4.2,14.3-1.3,19.6,8.9c1.5,2.8,2.7,7,3.7,12.8c1.1,6.2,1.9,9.9,2.5,11.4
	c1.1,2.5,2.6,3.5,4.7,2.8c3.4-1.2,5.3-5.5,5.5-12.8c0.2-6.7-0.7-12.4-2.7-17c-2.1-5-2.4-9.7-0.8-14.3c1.5-4.6,4.3-7.9,8.5-10.1
	c2.6-1.4,5.4-2.1,8.5-2.2c6.6-0.3,11.5,3.4,14.7,11.3c1.8,4.3,2.5,9,2,14c-0.5,5.5-2.3,10.7-5.4,15.7c-3.1,4.5-6.2,9-9.3,13.5
	c-2.2,3.5-2.7,6.1-1.6,7.8c0.9,1.3,4.2,1.1,10.1-0.5c6.5-1.8,11.2-1.9,14-0.5c4.2,2.1,7.4,5.9,9.7,11.5c1.7,4.1,2.2,8,1.5,11.7
	c-0.7,4.1-3.1,7.4-7,9.6c-5.4,3.2-10.7,3.4-15.9,0.8c-1.4-0.7-5.3-3.7-11.7-9c-4.1-3.4-7.4-4.4-10-3.1c-0.7,0.4-1.5,1-2.3,1.9
	c-1,1.1-1.2,2.3-0.6,3.6c0.3,0.6,1.2,2,2.9,4.2C117.1,227.6,118,229.3,118.4,230.7L118.4,230.7z"/>
<path fill="#2727FF" d="M169.7,172.1c2.8,1.5,4.9,3.9,6.3,7.1c0.4,1,0.7,2,0.9,3c1,5.1,2.5,10,4.4,14.5c1.3,3.1,2.7,5.6,4.1,7.7
	c2,2.9,3.4,3.5,5,6.9c8.4,17-11.8,23.1-18.3,12.7c-1-1.6-1.8-2.5-2.9-6.9c-0.4-1.6-0.4-2.6-1.3-4.8c-1.7-4.1-4.6-9.5-8.7-16.2
	c-1.1-1.7-2-3.5-2.7-5.2c-1.9-4.6-2.4-8.6-1.4-12.2c0.9-3.1,2.7-5.3,5.3-6.7C163.6,170.4,166.6,170.4,169.7,172.1L169.7,172.1z
	 M163.4,150.9c0.5,1.1,0.8,2.3,1.1,3.7c0.4,2.1-0.1,4.4-1.5,6.8c-1.4,2.4-3.3,4.3-5.5,5.5c-2.7,1.5-5.1,1.4-7.2,0
	c-1.7-1.2-3-2.9-3.9-5c-1.3-3.1-1.5-6.1-0.5-9.2c0.9-3.1,3.1-5.2,6.5-6.6C157.6,144.1,161.2,145.8,163.4,150.9L163.4,150.9z"/>
<path fill="#2727FF" d="M207.5,186.9c2.6,1,5.2,0.8,7.7-0.4c1.6-0.8,3-1.9,4.1-3.4c2.1-2.8,2.4-6.2,0.8-10.1c-1-2.7-2.6-4.7-4.7-6.1
	c-2.1-1.4-4.4-1.7-6.7-0.9c-2.6,0.9-4.6,2.9-6.3,6c-1.8,3.2-2.1,6.2-0.9,8.9C202.9,183.9,204.9,185.9,207.5,186.9L207.5,186.9z
	 M186,190.3c-0.9-2.4-1.8-5.2-2.5-8.4c-3.8-15.5,1.1-26.5,14.4-33c3.4-1.7,6.6-2.2,9.8-1.6c3.1,0.6,4.9,0.8,5.2,0.6
	c1.7-0.8,2.1-2.3,1.3-4.4c-0.4-1-1.5-3-3.4-6.1c-1.9-3.1-3.2-5.6-3.7-7.3c-0.9-3-1.1-6.1-0.6-9.3c0.6-4.1,2.4-6.7,5.1-7.9
	c6.1-2.5,11.3,1.6,15.4,12.4c1.2,3.2,2.4,7.1,3.5,11.5c3.4,13.5,6.8,23.7,10.1,30.8c0.2,0.3,1,1.9,2.5,4.8c1.2,2.2,2.1,4.1,2.7,5.7
	c2.8,7.3,1.3,12.4-4.6,15.3c-1.3,0.6-3.1,0.7-5.5,0.3c-2.3-0.5-4.2-0.4-5.5,0.3c-1.4,0.7-3.5,2.4-6.3,5.2c-2.8,2.8-5.2,4.6-7.2,5.7
	c-3.6,1.8-7.5,2.4-11.7,1.9C196.1,205.6,189.7,200.1,186,190.3L186,190.3z"/>
<path fill="#2727FF" d="M276.7,118c-3.4,1.7-8.3,1.8-14.7,0.4c-1.4-0.3-2.7-0.1-4,0.5c-1.5,0.7-2.6,2-3.3,3.8
	c-0.7,1.8-0.8,3.5-0.2,5c1.4,3.6,5,3.8,10.9,0.5c8.5-4.8,15.5-6.6,21-5.5c5.5,1.1,9.7,5.4,12.6,13c2.7,6.9,1.7,13.8-2.9,20.6
	c-4,5.8-9.7,10.6-17.3,14.4c-6.6,3.3-13.1,4.7-19.5,4.3c-7.1-0.5-11.7-3.3-13.6-8.3c-0.4-1-0.7-2.1-0.9-3.3
	c-0.6-5.2,0.9-8.7,4.5-10.4c4.1-2,8.9-1.8,14.6,0.7c3.7,1.6,7.1,1.7,10.2,0.2c2.7-1.3,4.3-3.7,4.8-7c0.2-1.1,0.2-2-0.1-2.7
	c-0.7-1.8-2.9-2.3-6.8-1.6c-1.6,0.2-5.8,1.4-12.4,3.5c-10.9,3.3-18.7-0.4-23.3-11.1c-2.5-5.8-2.7-11.8-0.6-17.8
	c2.5-7.2,7.9-13.1,16.2-17.8c7.3-4,13.9-5.7,19.8-5.2c5.6,0.4,9.1,2.7,10.7,6.9c0.6,1.5,0.8,3.2,0.7,5C283,112,280.7,116,276.7,118
	L276.7,118z"/>
<g>
	<path fill="#242424" d="M181.2,63.8c-0.2,0-0.4-0.1-0.6-0.1l-0.2,0c-0.3,0-0.7-0.1-1-0.1c-0.2,0-0.5,0-0.7-0.1c-0.4,0-0.8,0-1.2,0
		c-0.2,0-0.3,0-0.5,0c-0.3,0-0.7,0-1,0c-0.2,0-0.4,0-0.5,0c-0.3,0-0.5,0.1-0.8,0.1l-0.2,0l-0.2,0l-0.3,0c-0.1,0-0.3,0-0.4,0.1
		c-0.2,0-0.3,0.1-0.5,0.1c-1,0.2-2,0.5-2.9,0.9c-0.5,0.2-0.9,0.4-1.3,0.6c-0.3,0.2-0.7,0.4-1,0.5c-0.3,0.2-0.6,0.4-0.9,0.6
		c-0.2,0.1-0.3,0.2-0.5,0.3c-0.1,0.1-0.3,0.2-0.4,0.3c-0.3,0.2-0.5,0.4-0.8,0.7c-0.2,0.2-0.5,0.4-0.7,0.6c-0.2,0.2-0.4,0.4-0.5,0.6
		c-0.2,0.2-0.4,0.4-0.5,0.6c-0.2,0.2-0.4,0.5-0.5,0.7c-0.1,0.2-0.3,0.4-0.4,0.5c-0.1,0.1-0.2,0.3-0.2,0.4c-0.5,0.8-0.9,1.6-1.2,2.4
		c-0.4,1.1-0.7,2.2-0.9,3.5c-0.1,0.4-0.1,0.8-0.1,1.2c0,0.3,0,0.6,0,0.9c0,0.2,0,0.5,0,0.7c0,0.2,0,0.5,0.1,0.7l0,0.2
		c0,0.3,0.1,0.6,0.1,0.8c0,0.1,0,0.2,0.1,0.3c0,0.2,0.1,0.5,0.2,0.7c0.1,0.3,0.2,0.6,0.2,0.8c0.1,0.3,0.2,0.7,0.4,1
		c0.2,0.5,0.4,1,0.7,1.5c0.2,0.3,0.3,0.5,0.5,0.8c0.1,0.2,0.3,0.4,0.4,0.6c0.2,0.3,0.4,0.5,0.5,0.7c0.2,0.2,0.4,0.5,0.6,0.7
		c0.2,0.3,0.5,0.5,0.7,0.7l0.1,0.1c0.2,0.2,0.4,0.4,0.6,0.6c0.2,0.1,0.3,0.3,0.5,0.4c0.2,0.1,0.3,0.3,0.5,0.4
		c0.2,0.2,0.5,0.3,0.7,0.5c0.3,0.2,0.5,0.3,0.8,0.5c0.6,0.3,1.2,0.6,1.9,0.9c0.3,0.1,0.5,0.2,0.8,0.3c0.3,0.1,0.6,0.2,0.9,0.3
		c0.5,0.1,1,0.3,1.6,0.4c0.5,0.1,0.9,0.2,1.4,0.2c0.5,0.1,1,0.1,1.5,0.1c0.3,0,0.5,0,0.8,0c0.1,0,0.2,0,0.4,0c0.9,0,1.8,0,2.6-0.1
		l0.2,0c0.3,0,0.6-0.1,0.9-0.1c0.5-0.1,0.9-0.1,1.3-0.2c0.3,0,0.5-0.1,0.8-0.2c0.4-0.1,0.7-0.2,1.1-0.3c0.3-0.1,0.5-0.1,0.7-0.2
		c0.3-0.1,0.6-0.2,0.8-0.3l0.3-0.1c0.1,0,0.3-0.1,0.5-0.2c0.3-0.1,0.6-0.2,1-0.4c0.2-0.1,0.5-0.2,0.7-0.3c0.2-0.1,0.4-0.2,0.7-0.3
		c0.1,0,0.2-0.1,0.3-0.1v-5.7c-0.1,0-0.1,0.1-0.2,0.1l-0.4,0.2c-0.4,0.2-0.8,0.5-1.1,0.7c-0.4,0.2-0.8,0.4-1.2,0.6
		c-0.7,0.3-1.4,0.6-2,0.8c-1.2,0.4-2.4,0.7-3.4,0.9c-0.1,0-0.2,0-0.4,0.1c-0.3,0-0.5,0.1-0.8,0.1c-0.4,0-0.8,0.1-1.1,0.1
		c-0.2,0-0.4,0-0.6,0c-0.4,0-0.8,0-1.2,0c-0.5,0-1-0.1-1.5-0.2c-0.8-0.1-1.7-0.3-2.5-0.6c-0.1,0-0.2-0.1-0.4-0.1
		c-0.1,0-0.2-0.1-0.2-0.1c-0.1-0.1-0.3-0.1-0.4-0.2c-0.3-0.1-0.6-0.3-0.8-0.4c-0.1-0.1-0.3-0.2-0.4-0.2c-0.1-0.1-0.3-0.2-0.4-0.3
		c-0.2-0.1-0.3-0.2-0.5-0.4c-0.2-0.1-0.3-0.3-0.4-0.4l-0.2-0.2l-0.1-0.1l-0.1-0.1l-0.1-0.1c-0.3-0.3-0.5-0.5-0.7-0.8
		c-0.1-0.1-0.2-0.3-0.3-0.4c-0.1-0.1-0.2-0.3-0.3-0.4c-0.1-0.1-0.2-0.3-0.2-0.4c-0.1-0.2-0.2-0.4-0.3-0.6c-0.1-0.2-0.2-0.3-0.2-0.5
		c-0.1-0.3-0.2-0.6-0.3-0.8c-0.1-0.2-0.1-0.4-0.2-0.6c-0.2-0.6-0.2-1.1-0.3-1.6c0-0.2,0-0.3,0-0.5c0-0.2,0-0.4,0-0.6
		c0-0.1,0-0.2,0-0.4c0-0.3,0-0.7,0.1-1.2c0-0.3,0.1-0.6,0.2-0.9c0-0.2,0.1-0.4,0.2-0.7c0.1-0.2,0.1-0.4,0.2-0.6
		c0.1-0.1,0.1-0.3,0.2-0.4c0.1-0.2,0.2-0.4,0.3-0.6c0.1-0.1,0.2-0.3,0.2-0.4c0.2-0.3,0.4-0.6,0.6-1c0.1-0.1,0.2-0.2,0.3-0.3
		c0.1-0.1,0.2-0.3,0.4-0.4c0.1-0.1,0.1-0.1,0.2-0.2c1-1,2.2-1.8,3.4-2.4c0.2-0.1,0.4-0.2,0.6-0.2c0.2-0.1,0.4-0.1,0.6-0.2
		c0.2-0.1,0.4-0.1,0.6-0.2c0.2-0.1,0.4-0.1,0.6-0.2c0.2,0,0.4-0.1,0.6-0.1c0.2,0,0.4-0.1,0.7-0.1c0.2,0,0.4-0.1,0.7-0.1
		c0.4,0,0.8-0.1,1.2-0.1c0.1,0,0.3,0,0.4,0c0.3,0,0.6,0,0.9,0c0.2,0,0.4,0,0.6,0c0.4,0,0.7,0.1,1,0.1c0.3,0,0.6,0.1,0.8,0.1
		c0.4,0.1,0.8,0.2,1.1,0.3c0.2,0.1,0.4,0.1,0.6,0.2c0.3,0.1,0.5,0.2,0.7,0.2c0.3,0.1,0.5,0.2,0.5,0.2c0.3,0.1,0.6,0.2,0.8,0.3
		c0.4,0.1,0.7,0.3,1,0.5c0.3,0.1,0.5,0.3,0.8,0.4c0.2,0.1,0.4,0.2,0.6,0.3c0.3,0.2,0.6,0.3,0.8,0.4l0.6,0.3V66c0,0-0.3-0.1-1-0.4
		c-0.3-0.1-0.6-0.2-0.9-0.3c-0.2-0.1-0.4-0.1-0.6-0.2c-0.2-0.1-0.4-0.1-0.5-0.2c-0.2-0.1-0.4-0.1-0.7-0.2c-0.2,0-0.3-0.1-0.5-0.1
		l-0.2,0c-0.2,0-0.3-0.1-0.5-0.1c-0.2-0.1-0.4-0.1-0.6-0.2c-0.1,0-0.3-0.1-0.4-0.1c-0.2-0.1-0.4-0.1-0.7-0.1
		C181.6,63.8,181.4,63.8,181.2,63.8z M153.2,57.9h44.3v41.7h-44.3V57.9z"/>
	<path fill="#242424" d="M119.1,81v8.2h5.3c0,0,0.1,0,0.3,0c0.2,0,0.4,0,0.7,0c0.6-0.1,1.3-0.2,2.1-0.4c0.7-0.2,1.3-0.6,1.8-1.1
		c0.2-0.2,0.3-0.4,0.5-0.6c0.4-0.7,0.5-1.3,0.5-1.7c0-0.2,0-0.3,0-0.3s0-0.1,0-0.2c0-0.2,0-0.5-0.1-0.8c-0.1-0.4-0.3-0.8-0.6-1.2
		c-0.1-0.1-0.1-0.2-0.2-0.2c-0.1-0.1-0.3-0.3-0.5-0.4c-0.3-0.2-0.6-0.4-1-0.6c-0.5-0.2-1-0.4-1.6-0.5c-0.3-0.1-0.6-0.1-0.9-0.1
		c-0.2,0-0.4,0-0.6,0c-0.2,0-0.4,0-0.6,0C122.4,81,119.1,81,119.1,81z"/>
	<path fill="#242424" d="M119.1,68.5v7.8h2.6c0,0,0.2,0,0.4,0c0.2,0,0.4,0,0.6,0c0.5,0,1.3-0.1,2-0.3c0.1,0,0.3-0.1,0.4-0.1
		c0.6-0.2,1.1-0.5,1.6-0.9c0.3-0.3,0.6-0.7,0.7-1.1c0.2-0.4,0.2-0.9,0.3-1.2c0-0.3,0-0.4,0-0.4s0-0.1,0-0.3c0-0.3-0.1-0.9-0.4-1.4
		c-0.1-0.3-0.3-0.5-0.5-0.7c-0.3-0.3-0.6-0.5-1-0.7c-0.7-0.3-1.6-0.4-2.3-0.5c-0.3,0-0.6,0-0.8,0C122.2,68.5,119.1,68.5,119.1,68.5z
		"/>
	<path fill="#242424" d="M113.8,63.8v30.1h11.3c0,0,5.5,0.2,8.6-2.9c2.5-2.5,2.3-5.3,2.3-5.3s0.2-3-2.1-5.3c-2-2-4.5-2.5-4.5-2.5
		s1.1-0.5,2-1.4c0.4-0.4,1.8-1.7,1.8-4.9c0-3.2-2.1-5-2.1-5s-2.3-2.7-7.6-2.7H113.8z M102.1,57.9h44.3v41.7h-44.3V57.9z"/>
	<path fill="#242424" d="M68.1,81v8.2h5.3c0,0,0.1,0,0.3,0c0.2,0,0.4,0,0.7,0c0.6-0.1,1.3-0.2,2.1-0.4c0.7-0.2,1.3-0.6,1.8-1.1
		c0.2-0.2,0.3-0.4,0.5-0.6c0.4-0.7,0.5-1.3,0.5-1.7c0-0.2,0-0.3,0-0.3s0-0.1,0-0.2c0-0.2,0-0.5-0.1-0.8c-0.1-0.4-0.3-0.8-0.6-1.2
		c-0.1-0.1-0.1-0.2-0.2-0.2c-0.1-0.1-0.3-0.3-0.5-0.4c-0.3-0.2-0.6-0.4-1-0.6c-0.5-0.2-1-0.4-1.6-0.5c-0.3-0.1-0.6-0.1-0.9-0.1
		c-0.2,0-0.4,0-0.6,0c-0.2,0-0.4,0-0.6,0C71.3,81,68.1,81,68.1,81z"/>
	<path fill="#242424" d="M68.1,68.5v7.8h2.6c0,0,0.2,0,0.4,0c0.2,0,0.4,0,0.6,0c0.5,0,1.3-0.1,2-0.3c0.1,0,0.3-0.1,0.4-0.1
		c0.6-0.2,1.1-0.5,1.6-0.9c0.3-0.3,0.6-0.7,0.7-1.1c0.2-0.4,0.2-0.9,0.3-1.2c0-0.3,0-0.4,0-0.4s0-0.1,0-0.3c0-0.3-0.1-0.9-0.4-1.4
		c-0.1-0.3-0.3-0.5-0.5-0.7c-0.3-0.3-0.6-0.5-1-0.7c-0.7-0.3-1.6-0.4-2.3-0.5c-0.3,0-0.6,0-0.8,0C71.1,68.5,68.1,68.5,68.1,68.5z"/>
	<path fill="#242424" d="M62.7,63.8v30.1H74c0,0,5.5,0.2,8.6-2.9c2.5-2.5,2.3-5.3,2.3-5.3s0.2-3-2.1-5.3c-2-2-4.5-2.5-4.5-2.5
		s1.1-0.5,2-1.4c0.4-0.4,1.8-1.7,1.8-4.9c0-3.2-2.1-5-2.1-5s-2.3-2.7-7.6-2.7H62.7z M51,57.9h44.3v41.7H51V57.9z"/>
</g>
</svg>
